<svg width="100" height="100" viewBox="0 0 100 100" fill="none" xmlns="http://www.w3.org/2000/svg">
<path fill-rule="evenodd" clip-rule="evenodd" d="M49.9999 8.33337C26.9874 8.33337 8.33325 26.9875 8.33325 50C8.33325 73.0125 26.9874 91.6667 49.9999 91.6667C73.0124 91.6667 91.6666 73.0125 91.6666 50C91.6666 26.9875 73.0124 8.33337 49.9999 8.33337ZM35.4166 39.5834C35.4166 37.6683 35.7938 35.7719 36.5267 34.0026C37.2596 32.2332 38.3338 30.6256 39.6879 29.2714C41.0421 27.9172 42.6498 26.843 44.4191 26.1101C46.1885 25.3773 48.0848 25 49.9999 25C51.915 25 53.8114 25.3773 55.5807 26.1101C57.3501 26.843 58.9577 27.9172 60.3119 29.2714C61.6661 30.6256 62.7403 32.2332 63.4732 34.0026C64.206 35.7719 64.5833 37.6683 64.5833 39.5834C64.5833 43.4511 63.0468 47.1604 60.3119 49.8954C57.577 52.6303 53.8677 54.1667 49.9999 54.1667C46.1322 54.1667 42.4229 52.6303 39.6879 49.8954C36.953 47.1604 35.4166 43.4511 35.4166 39.5834ZM76.0749 70.7667C72.9549 74.689 68.9895 77.8562 64.4746 80.0322C59.9597 82.2081 55.0118 83.3365 49.9999 83.3334C44.988 83.3365 40.0401 82.2081 35.5252 80.0322C31.0103 77.8562 27.045 74.689 23.9249 70.7667C30.6791 65.9209 39.8958 62.5 49.9999 62.5C60.1041 62.5 69.3208 65.9209 76.0749 70.7667Z" fill="black"/>
</svg>
